<?xml version="1.0" encoding="UTF-8" standalone="no"?>
<svg
   xmlns:dc="http://purl.org/dc/elements/1.1/"
   xmlns:cc="http://creativecommons.org/ns#"
   xmlns:rdf="http://www.w3.org/1999/02/22-rdf-syntax-ns#"
   xmlns:svg="http://www.w3.org/2000/svg"
   xmlns="http://www.w3.org/2000/svg"
   xmlns:sodipodi="http://sodipodi.sourceforge.net/DTD/sodipodi-0.dtd"
   xmlns:inkscape="http://www.inkscape.org/namespaces/inkscape"
   enable-background="new 0 0 50 50"
   id="Layer_1"
   version="1.1"
   viewBox="0 0 400 250"
   xml:space="preserve"
   inkscape:version="0.91 r13725"
   sodipodi:docname="html5.svg"
   width="400"
   height="250"><metadata
     id="metadata20"><rdf:RDF><cc:Work
         rdf:about=""><dc:format>image/svg+xml</dc:format><dc:type
           rdf:resource="http://purl.org/dc/dcmitype/StillImage" /><dc:title></dc:title></cc:Work></rdf:RDF></metadata><defs
     id="defs18" /><sodipodi:namedview
     pagecolor="#ffffff"
     bordercolor="#666666"
     borderopacity="1"
     objecttolerance="10"
     gridtolerance="10"
     guidetolerance="10"
     inkscape:pageopacity="0"
     inkscape:pageshadow="2"
     inkscape:window-width="1863"
     inkscape:window-height="1056"
     id="namedview16"
     showgrid="false"
     inkscape:zoom="1"
     inkscape:cx="122.70503"
     inkscape:cy="66.851031"
     inkscape:window-x="57"
     inkscape:window-y="24"
     inkscape:window-maximized="1"
     inkscape:current-layer="Layer_1" /><rect
     style="opacity:1;fill:#f16529;fill-opacity:1;fill-rule:nonzero;stroke:none;stroke-width:2;stroke-linecap:round;stroke-linejoin:miter;stroke-miterlimit:4;stroke-dasharray:none;stroke-opacity:1"
     id="rect3348"
     width="400"
     height="250"
     x="0"
     y="0" /><g
     id="HTML_5"
     transform="matrix(6.6666667,0,0,6.6666667,33.333332,-41.666668)"><polygon
       points="17.4,14 17.4,12.7 18.6,12.7 18.6,14 20,14 20,10 18.6,10 18.6,11.3 17.4,11.3 17.4,10 16,10 16,14 "
       id="polygon6"
       style="fill:#ffffff" /><polygon
       points="24.7,11.3 24.7,10 21,10 21,11.3 22.2,11.3 22.2,14 23.5,14 23.5,11.3 "
       id="polygon8"
       style="fill:#ffffff" /><polygon
       points="25.4,14 26.8,14 26.8,12 27.7,13.5 27.7,13.5 28.6,12 28.6,14 30,14 30,10 28.6,10 27.7,11.4 26.8,10 25.4,10 "
       id="polygon10"
       style="fill:#ffffff" /><polygon
       points="34,14 34,12.7 32.1,12.7 32.1,10 30.7,10 30.7,14 "
       id="polygon12"
       style="fill:#ffffff" /><path
       d="m 14,16 2,22 9,2 9,-2 2,-22 -22,0 z m 17.5,7 -6.5,0 -4,0 0.5,2 3.5,0 6,0 -1,9 -5,2 -5,-2 -0.8,-4 2.8,0 0.5,2 2.5,1 2.5,-1 0.5,-4 -3,0 -6,0 -1,-8 7,0 7,0 -0.5,3 z"
       id="path14"
       inkscape:connector-curvature="0"
       style="fill:#ffffff" /></g></svg>