<svg xmlns="http://www.w3.org/2000/svg" xmlns:svg="http://www.w3.org/2000/svg" id="Layer_1" width="400" height="250" enable-background="new 0 0 50 50" version="1.1" viewBox="0 0 400 250" xml:space="preserve"><metadata id="metadata20"/><rect style="opacity:1;fill:#f16529;fill-opacity:1;fill-rule:nonzero;stroke:none;stroke-width:2;stroke-linecap:round;stroke-linejoin:miter;stroke-miterlimit:4;stroke-dasharray:none;stroke-opacity:1" id="rect3348" width="400" height="250" x="0" y="0"/><g id="HTML_5" transform="matrix(6.6666667,0,0,6.6666667,33.333332,-41.666668)"><polygon id="polygon6" points="17.4 14 17.4 12.7 18.6 12.7 18.6 14 20 14 20 10 18.6 10 18.6 11.3 17.4 11.3 17.4 10 16 10 16 14" style="fill:#fff"/><polygon id="polygon8" points="24.7 11.3 24.7 10 21 10 21 11.3 22.2 11.3 22.2 14 23.5 14 23.5 11.3" style="fill:#fff"/><polygon id="polygon10" points="25.4 14 26.8 14 26.8 12 27.7 13.5 27.7 13.5 28.6 12 28.6 14 30 14 30 10 28.6 10 27.7 11.4 26.8 10 25.4 10" style="fill:#fff"/><polygon id="polygon12" points="34 14 34 12.7 32.1 12.7 32.1 10 30.7 10 30.7 14" style="fill:#fff"/><path id="path14" d="m 14,16 2,22 9,2 9,-2 2,-22 -22,0 z m 17.5,7 -6.5,0 -4,0 0.5,2 3.5,0 6,0 -1,9 -5,2 -5,-2 -0.8,-4 2.8,0 0.5,2 2.5,1 2.5,-1 0.5,-4 -3,0 -6,0 -1,-8 7,0 7,0 -0.5,3 z" style="fill:#fff"/></g></svg>